STARTFONT 2.1
FONT -TakWolf-Retro Pixel Arcade-Regular-R-Normal-Sans Serif-8-80-75-75-M-80-ISO10646-1
SIZE 8 75 75
FONTBOUNDINGBOX 8 12 0 -3
STARTPROPERTIES 22
FOUNDRY "TakWolf"
FAMILY_NAME "Retro Pixel Arcade"
WEIGHT_NAME "Regular"
SLANT "R"
SETWIDTH_NAME "Normal"
ADD_STYLE_NAME "Sans Serif"
PIXEL_SIZE 8
POINT_SIZE 80
RESOLUTION_X 75
RESOLUTION_Y 75
SPACING "M"
AVERAGE_WIDTH 80
CHARSET_REGISTRY "ISO10646"
CHARSET_ENCODING "1"
DEFAULT_CHAR 65534
FONT_ASCENT 9
FONT_DESCENT 3
X_HEIGHT 5
CAP_HEIGHT 7
FONT_VERSION "2024.05.12"
COPYRIGHT "Copyright (c) 2023, TakWolf (https://takwolf.com), with Reserved Font Name 'Retro Pixel Arcade'."
LICENSE "This Font Software is licensed under the SIL Open Font License, Version 1.1."
ENDPROPERTIES
CHARS 116
STARTCHAR uni0020
ENCODING 32
SWIDTH 1000 0
DWIDTH 8 0
BBX 8 12 0 -3
BITMAP
00
00
00
00
00
00
00
00
00
00
00
00
ENDCHAR
STARTCHAR uni0021
ENCODING 33
SWIDTH 1000 0
DWIDTH 8 0
BBX 8 12 0 -3
BITMAP
00
00
38
38
38
30
30
00
30
00
00
00
ENDCHAR
STARTCHAR uni0022
ENCODING 34
SWIDTH 1000 0
DWIDTH 8 0
BBX 8 12 0 -3
BITMAP
00
00
6C
6C
6C
00
00
00
00
00
00
00
ENDCHAR
STARTCHAR uni0023
ENCODING 35
SWIDTH 1000 0
DWIDTH 8 0
BBX 8 12 0 -3
BITMAP
00
00
6C
6C
FE
6C
FE
6C
6C
00
00
00
ENDCHAR
STARTCHAR uni0024
ENCODING 36
SWIDTH 1000 0
DWIDTH 8 0
BBX 8 12 0 -3
BITMAP
00
00
10
7C
C0
7C
06
7C
10
00
00
00
ENDCHAR
STARTCHAR uni0025
ENCODING 37
SWIDTH 1000 0
DWIDTH 8 0
BBX 8 12 0 -3
BITMAP
00
00
42
A4
48
10
24
4A
84
00
00
00
ENDCHAR
STARTCHAR uni0026
ENCODING 38
SWIDTH 1000 0
DWIDTH 8 0
BBX 8 12 0 -3
BITMAP
00
00
30
48
68
70
9A
8C
7A
00
00
00
ENDCHAR
STARTCHAR uni0027
ENCODING 39
SWIDTH 1000 0
DWIDTH 8 0
BBX 8 12 0 -3
BITMAP
00
00
30
30
30
00
00
00
00
00
00
00
ENDCHAR
STARTCHAR uni0028
ENCODING 40
SWIDTH 1000 0
DWIDTH 8 0
BBX 8 12 0 -3
BITMAP
00
00
0C
18
30
30
30
18
0C
00
00
00
ENDCHAR
STARTCHAR uni0029
ENCODING 41
SWIDTH 1000 0
DWIDTH 8 0
BBX 8 12 0 -3
BITMAP
00
00
60
30
18
18
18
30
60
00
00
00
ENDCHAR
STARTCHAR uni002A
ENCODING 42
SWIDTH 1000 0
DWIDTH 8 0
BBX 8 12 0 -3
BITMAP
00
00
10
D6
7C
38
7C
D6
10
00
00
00
ENDCHAR
STARTCHAR uni002B
ENCODING 43
SWIDTH 1000 0
DWIDTH 8 0
BBX 8 12 0 -3
BITMAP
00
00
00
18
18
7E
18
18
00
00
00
00
ENDCHAR
STARTCHAR uni002C
ENCODING 44
SWIDTH 1000 0
DWIDTH 8 0
BBX 8 12 0 -3
BITMAP
00
00
00
00
00
00
00
60
60
C0
00
00
ENDCHAR
STARTCHAR uni002D
ENCODING 45
SWIDTH 1000 0
DWIDTH 8 0
BBX 8 12 0 -3
BITMAP
00
00
00
00
00
7E
00
00
00
00
00
00
ENDCHAR
STARTCHAR uni002E
ENCODING 46
SWIDTH 1000 0
DWIDTH 8 0
BBX 8 12 0 -3
BITMAP
00
00
00
00
00
00
00
60
60
00
00
00
ENDCHAR
STARTCHAR uni002F
ENCODING 47
SWIDTH 1000 0
DWIDTH 8 0
BBX 8 12 0 -3
BITMAP
00
00
02
04
08
10
20
40
80
00
00
00
ENDCHAR
STARTCHAR uni0030
ENCODING 48
SWIDTH 1000 0
DWIDTH 8 0
BBX 8 12 0 -3
BITMAP
00
00
38
4C
C6
C6
C6
64
38
00
00
00
ENDCHAR
STARTCHAR uni0031
ENCODING 49
SWIDTH 1000 0
DWIDTH 8 0
BBX 8 12 0 -3
BITMAP
00
00
18
38
18
18
18
18
7E
00
00
00
ENDCHAR
STARTCHAR uni0032
ENCODING 50
SWIDTH 1000 0
DWIDTH 8 0
BBX 8 12 0 -3
BITMAP
00
00
7C
C6
0E
3C
78
E0
FE
00
00
00
ENDCHAR
STARTCHAR uni0033
ENCODING 51
SWIDTH 1000 0
DWIDTH 8 0
BBX 8 12 0 -3
BITMAP
00
00
7C
C6
06
3C
06
C6
7C
00
00
00
ENDCHAR
STARTCHAR uni0034
ENCODING 52
SWIDTH 1000 0
DWIDTH 8 0
BBX 8 12 0 -3
BITMAP
00
00
1C
2C
4C
CC
CC
FE
0C
00
00
00
ENDCHAR
STARTCHAR uni0035
ENCODING 53
SWIDTH 1000 0
DWIDTH 8 0
BBX 8 12 0 -3
BITMAP
00
00
FC
C0
FC
06
06
C6
7C
00
00
00
ENDCHAR
STARTCHAR uni0036
ENCODING 54
SWIDTH 1000 0
DWIDTH 8 0
BBX 8 12 0 -3
BITMAP
00
00
3C
60
C0
FC
C6
C6
7C
00
00
00
ENDCHAR
STARTCHAR uni0037
ENCODING 55
SWIDTH 1000 0
DWIDTH 8 0
BBX 8 12 0 -3
BITMAP
00
00
FE
C6
0C
18
30
30
30
00
00
00
ENDCHAR
STARTCHAR uni0038
ENCODING 56
SWIDTH 1000 0
DWIDTH 8 0
BBX 8 12 0 -3
BITMAP
00
00
7C
C6
C6
7C
C6
C6
7C
00
00
00
ENDCHAR
STARTCHAR uni0039
ENCODING 57
SWIDTH 1000 0
DWIDTH 8 0
BBX 8 12 0 -3
BITMAP
00
00
7C
C6
C6
7E
06
0C
78
00
00
00
ENDCHAR
STARTCHAR uni003A
ENCODING 58
SWIDTH 1000 0
DWIDTH 8 0
BBX 8 12 0 -3
BITMAP
00
00
00
60
60
00
00
60
60
00
00
00
ENDCHAR
STARTCHAR uni003B
ENCODING 59
SWIDTH 1000 0
DWIDTH 8 0
BBX 8 12 0 -3
BITMAP
00
00
00
60
60
00
00
60
60
C0
00
00
ENDCHAR
STARTCHAR uni003C
ENCODING 60
SWIDTH 1000 0
DWIDTH 8 0
BBX 8 12 0 -3
BITMAP
00
00
0C
18
30
60
30
18
0C
00
00
00
ENDCHAR
STARTCHAR uni003D
ENCODING 61
SWIDTH 1000 0
DWIDTH 8 0
BBX 8 12 0 -3
BITMAP
00
00
00
00
7E
00
7E
00
00
00
00
00
ENDCHAR
STARTCHAR uni003E
ENCODING 62
SWIDTH 1000 0
DWIDTH 8 0
BBX 8 12 0 -3
BITMAP
00
00
60
30
18
0C
18
30
60
00
00
00
ENDCHAR
STARTCHAR uni003F
ENCODING 63
SWIDTH 1000 0
DWIDTH 8 0
BBX 8 12 0 -3
BITMAP
00
00
7C
C6
C6
1C
30
00
30
00
00
00
ENDCHAR
STARTCHAR uni0040
ENCODING 64
SWIDTH 1000 0
DWIDTH 8 0
BBX 8 12 0 -3
BITMAP
00
00
7C
82
BA
AA
BE
80
7C
00
00
00
ENDCHAR
STARTCHAR uni0041
ENCODING 65
SWIDTH 1000 0
DWIDTH 8 0
BBX 8 12 0 -3
BITMAP
00
00
38
6C
C6
C6
FE
C6
C6
00
00
00
ENDCHAR
STARTCHAR uni0042
ENCODING 66
SWIDTH 1000 0
DWIDTH 8 0
BBX 8 12 0 -3
BITMAP
00
00
FC
C6
C6
FC
C6
C6
FC
00
00
00
ENDCHAR
STARTCHAR uni0043
ENCODING 67
SWIDTH 1000 0
DWIDTH 8 0
BBX 8 12 0 -3
BITMAP
00
00
3C
66
C0
C0
C0
66
3C
00
00
00
ENDCHAR
STARTCHAR uni0044
ENCODING 68
SWIDTH 1000 0
DWIDTH 8 0
BBX 8 12 0 -3
BITMAP
00
00
F8
CC
C6
C6
C6
CC
F8
00
00
00
ENDCHAR
STARTCHAR uni0045
ENCODING 69
SWIDTH 1000 0
DWIDTH 8 0
BBX 8 12 0 -3
BITMAP
00
00
FE
C0
C0
FC
C0
C0
FE
00
00
00
ENDCHAR
STARTCHAR uni0046
ENCODING 70
SWIDTH 1000 0
DWIDTH 8 0
BBX 8 12 0 -3
BITMAP
00
00
FE
C0
C0
FC
C0
C0
C0
00
00
00
ENDCHAR
STARTCHAR uni0047
ENCODING 71
SWIDTH 1000 0
DWIDTH 8 0
BBX 8 12 0 -3
BITMAP
00
00
3E
60
C0
CE
C6
66
3E
00
00
00
ENDCHAR
STARTCHAR uni0048
ENCODING 72
SWIDTH 1000 0
DWIDTH 8 0
BBX 8 12 0 -3
BITMAP
00
00
C6
C6
C6
FE
C6
C6
C6
00
00
00
ENDCHAR
STARTCHAR uni0049
ENCODING 73
SWIDTH 1000 0
DWIDTH 8 0
BBX 8 12 0 -3
BITMAP
00
00
7E
18
18
18
18
18
7E
00
00
00
ENDCHAR
STARTCHAR uni004A
ENCODING 74
SWIDTH 1000 0
DWIDTH 8 0
BBX 8 12 0 -3
BITMAP
00
00
06
06
06
06
06
C6
7C
00
00
00
ENDCHAR
STARTCHAR uni004B
ENCODING 75
SWIDTH 1000 0
DWIDTH 8 0
BBX 8 12 0 -3
BITMAP
00
00
C6
CC
D8
F0
F8
DC
CE
00
00
00
ENDCHAR
STARTCHAR uni004C
ENCODING 76
SWIDTH 1000 0
DWIDTH 8 0
BBX 8 12 0 -3
BITMAP
00
00
C0
C0
C0
C0
C0
C0
FE
00
00
00
ENDCHAR
STARTCHAR uni004D
ENCODING 77
SWIDTH 1000 0
DWIDTH 8 0
BBX 8 12 0 -3
BITMAP
00
00
C6
EE
FE
FE
D6
C6
C6
00
00
00
ENDCHAR
STARTCHAR uni004E
ENCODING 78
SWIDTH 1000 0
DWIDTH 8 0
BBX 8 12 0 -3
BITMAP
00
00
C6
E6
F6
FE
DE
CE
C6
00
00
00
ENDCHAR
STARTCHAR uni004F
ENCODING 79
SWIDTH 1000 0
DWIDTH 8 0
BBX 8 12 0 -3
BITMAP
00
00
7C
C6
C6
C6
C6
C6
7C
00
00
00
ENDCHAR
STARTCHAR uni0050
ENCODING 80
SWIDTH 1000 0
DWIDTH 8 0
BBX 8 12 0 -3
BITMAP
00
00
FC
C6
C6
C6
FC
C0
C0
00
00
00
ENDCHAR
STARTCHAR uni0051
ENCODING 81
SWIDTH 1000 0
DWIDTH 8 0
BBX 8 12 0 -3
BITMAP
00
00
7C
C6
C6
C6
D6
CC
7A
00
00
00
ENDCHAR
STARTCHAR uni0052
ENCODING 82
SWIDTH 1000 0
DWIDTH 8 0
BBX 8 12 0 -3
BITMAP
00
00
FC
C6
C6
CC
F8
DC
CE
00
00
00
ENDCHAR
STARTCHAR uni0053
ENCODING 83
SWIDTH 1000 0
DWIDTH 8 0
BBX 8 12 0 -3
BITMAP
00
00
7C
C6
C0
7C
06
C6
7C
00
00
00
ENDCHAR
STARTCHAR uni0054
ENCODING 84
SWIDTH 1000 0
DWIDTH 8 0
BBX 8 12 0 -3
BITMAP
00
00
7E
18
18
18
18
18
18
00
00
00
ENDCHAR
STARTCHAR uni0055
ENCODING 85
SWIDTH 1000 0
DWIDTH 8 0
BBX 8 12 0 -3
BITMAP
00
00
C6
C6
C6
C6
C6
C6
7C
00
00
00
ENDCHAR
STARTCHAR uni0056
ENCODING 86
SWIDTH 1000 0
DWIDTH 8 0
BBX 8 12 0 -3
BITMAP
00
00
C6
C6
C6
C6
6C
38
10
00
00
00
ENDCHAR
STARTCHAR uni0057
ENCODING 87
SWIDTH 1000 0
DWIDTH 8 0
BBX 8 12 0 -3
BITMAP
00
00
C6
C6
C6
D6
FE
6C
44
00
00
00
ENDCHAR
STARTCHAR uni0058
ENCODING 88
SWIDTH 1000 0
DWIDTH 8 0
BBX 8 12 0 -3
BITMAP
00
00
C6
6C
38
38
38
6C
C6
00
00
00
ENDCHAR
STARTCHAR uni0059
ENCODING 89
SWIDTH 1000 0
DWIDTH 8 0
BBX 8 12 0 -3
BITMAP
00
00
66
66
66
3C
18
18
18
00
00
00
ENDCHAR
STARTCHAR uni005A
ENCODING 90
SWIDTH 1000 0
DWIDTH 8 0
BBX 8 12 0 -3
BITMAP
00
00
FE
0E
1C
38
70
E0
FE
00
00
00
ENDCHAR
STARTCHAR uni005B
ENCODING 91
SWIDTH 1000 0
DWIDTH 8 0
BBX 8 12 0 -3
BITMAP
00
00
3C
30
30
30
30
30
3C
00
00
00
ENDCHAR
STARTCHAR uni005C
ENCODING 92
SWIDTH 1000 0
DWIDTH 8 0
BBX 8 12 0 -3
BITMAP
00
00
80
40
20
10
08
04
02
00
00
00
ENDCHAR
STARTCHAR uni005D
ENCODING 93
SWIDTH 1000 0
DWIDTH 8 0
BBX 8 12 0 -3
BITMAP
00
00
78
18
18
18
18
18
78
00
00
00
ENDCHAR
STARTCHAR uni005E
ENCODING 94
SWIDTH 1000 0
DWIDTH 8 0
BBX 8 12 0 -3
BITMAP
00
00
18
34
62
00
00
00
00
00
00
00
ENDCHAR
STARTCHAR uni005F
ENCODING 95
SWIDTH 1000 0
DWIDTH 8 0
BBX 8 12 0 -3
BITMAP
00
00
00
00
00
00
00
00
00
FE
00
00
ENDCHAR
STARTCHAR uni0060
ENCODING 96
SWIDTH 1000 0
DWIDTH 8 0
BBX 8 12 0 -3
BITMAP
00
00
30
18
0C
00
00
00
00
00
00
00
ENDCHAR
STARTCHAR uni0061
ENCODING 97
SWIDTH 1000 0
DWIDTH 8 0
BBX 8 12 0 -3
BITMAP
00
00
00
00
7C
06
7E
C6
7E
00
00
00
ENDCHAR
STARTCHAR uni0062
ENCODING 98
SWIDTH 1000 0
DWIDTH 8 0
BBX 8 12 0 -3
BITMAP
00
00
C0
C0
FC
C6
C6
C6
FC
00
00
00
ENDCHAR
STARTCHAR uni0063
ENCODING 99
SWIDTH 1000 0
DWIDTH 8 0
BBX 8 12 0 -3
BITMAP
00
00
00
00
7C
C6
C0
C6
7C
00
00
00
ENDCHAR
STARTCHAR uni0064
ENCODING 100
SWIDTH 1000 0
DWIDTH 8 0
BBX 8 12 0 -3
BITMAP
00
00
06
06
7E
C6
C6
C6
7E
00
00
00
ENDCHAR
STARTCHAR uni0065
ENCODING 101
SWIDTH 1000 0
DWIDTH 8 0
BBX 8 12 0 -3
BITMAP
00
00
00
00
7C
C6
FE
C0
7C
00
00
00
ENDCHAR
STARTCHAR uni0066
ENCODING 102
SWIDTH 1000 0
DWIDTH 8 0
BBX 8 12 0 -3
BITMAP
00
00
1E
30
FE
30
30
30
30
00
00
00
ENDCHAR
STARTCHAR uni0067
ENCODING 103
SWIDTH 1000 0
DWIDTH 8 0
BBX 8 12 0 -3
BITMAP
00
00
00
00
7E
C6
C6
7E
06
7C
00
00
ENDCHAR
STARTCHAR uni0068
ENCODING 104
SWIDTH 1000 0
DWIDTH 8 0
BBX 8 12 0 -3
BITMAP
00
00
C0
C0
FC
C6
C6
C6
C6
00
00
00
ENDCHAR
STARTCHAR uni0069
ENCODING 105
SWIDTH 1000 0
DWIDTH 8 0
BBX 8 12 0 -3
BITMAP
00
00
18
00
38
18
18
18
3C
00
00
00
ENDCHAR
STARTCHAR uni006A
ENCODING 106
SWIDTH 1000 0
DWIDTH 8 0
BBX 8 12 0 -3
BITMAP
00
00
0C
00
0C
0C
0C
0C
0C
78
00
00
ENDCHAR
STARTCHAR uni006B
ENCODING 107
SWIDTH 1000 0
DWIDTH 8 0
BBX 8 12 0 -3
BITMAP
00
00
C0
C0
CE
FC
F8
DC
CE
00
00
00
ENDCHAR
STARTCHAR uni006C
ENCODING 108
SWIDTH 1000 0
DWIDTH 8 0
BBX 8 12 0 -3
BITMAP
00
00
30
30
30
30
30
30
1E
00
00
00
ENDCHAR
STARTCHAR uni006D
ENCODING 109
SWIDTH 1000 0
DWIDTH 8 0
BBX 8 12 0 -3
BITMAP
00
00
00
00
EC
FE
D6
C6
C6
00
00
00
ENDCHAR
STARTCHAR uni006E
ENCODING 110
SWIDTH 1000 0
DWIDTH 8 0
BBX 8 12 0 -3
BITMAP
00
00
00
00
FC
C6
C6
C6
C6
00
00
00
ENDCHAR
STARTCHAR uni006F
ENCODING 111
SWIDTH 1000 0
DWIDTH 8 0
BBX 8 12 0 -3
BITMAP
00
00
00
00
7C
C6
C6
C6
7C
00
00
00
ENDCHAR
STARTCHAR uni0070
ENCODING 112
SWIDTH 1000 0
DWIDTH 8 0
BBX 8 12 0 -3
BITMAP
00
00
00
00
FC
C6
C6
FC
C0
C0
00
00
ENDCHAR
STARTCHAR uni0071
ENCODING 113
SWIDTH 1000 0
DWIDTH 8 0
BBX 8 12 0 -3
BITMAP
00
00
00
00
7E
C6
C6
7E
06
06
00
00
ENDCHAR
STARTCHAR uni0072
ENCODING 114
SWIDTH 1000 0
DWIDTH 8 0
BBX 8 12 0 -3
BITMAP
00
00
00
00
6E
70
60
60
60
00
00
00
ENDCHAR
STARTCHAR uni0073
ENCODING 115
SWIDTH 1000 0
DWIDTH 8 0
BBX 8 12 0 -3
BITMAP
00
00
00
00
7C
C0
7C
06
FC
00
00
00
ENDCHAR
STARTCHAR uni0074
ENCODING 116
SWIDTH 1000 0
DWIDTH 8 0
BBX 8 12 0 -3
BITMAP
00
00
30
30
FE
30
30
30
1E
00
00
00
ENDCHAR
STARTCHAR uni0075
ENCODING 117
SWIDTH 1000 0
DWIDTH 8 0
BBX 8 12 0 -3
BITMAP
00
00
00
00
C6
C6
C6
C6
7E
00
00
00
ENDCHAR
STARTCHAR uni0076
ENCODING 118
SWIDTH 1000 0
DWIDTH 8 0
BBX 8 12 0 -3
BITMAP
00
00
00
00
C6
C6
6C
38
10
00
00
00
ENDCHAR
STARTCHAR uni0077
ENCODING 119
SWIDTH 1000 0
DWIDTH 8 0
BBX 8 12 0 -3
BITMAP
00
00
00
00
C6
C6
D6
FE
6C
00
00
00
ENDCHAR
STARTCHAR uni0078
ENCODING 120
SWIDTH 1000 0
DWIDTH 8 0
BBX 8 12 0 -3
BITMAP
00
00
00
00
C6
6C
38
6C
C6
00
00
00
ENDCHAR
STARTCHAR uni0079
ENCODING 121
SWIDTH 1000 0
DWIDTH 8 0
BBX 8 12 0 -3
BITMAP
00
00
00
00
C6
C6
C6
7E
06
7C
00
00
ENDCHAR
STARTCHAR uni007A
ENCODING 122
SWIDTH 1000 0
DWIDTH 8 0
BBX 8 12 0 -3
BITMAP
00
00
00
00
FE
1C
38
70
FE
00
00
00
ENDCHAR
STARTCHAR uni007B
ENCODING 123
SWIDTH 1000 0
DWIDTH 8 0
BBX 8 12 0 -3
BITMAP
00
00
1C
30
30
60
30
30
1C
00
00
00
ENDCHAR
STARTCHAR uni007C
ENCODING 124
SWIDTH 1000 0
DWIDTH 8 0
BBX 8 12 0 -3
BITMAP
00
00
18
18
18
18
18
18
18
00
00
00
ENDCHAR
STARTCHAR uni007D
ENCODING 125
SWIDTH 1000 0
DWIDTH 8 0
BBX 8 12 0 -3
BITMAP
00
00
70
18
18
0C
18
18
70
00
00
00
ENDCHAR
STARTCHAR uni007E
ENCODING 126
SWIDTH 1000 0
DWIDTH 8 0
BBX 8 12 0 -3
BITMAP
00
00
00
00
60
92
0C
00
00
00
00
00
ENDCHAR
STARTCHAR uni00A9
ENCODING 169
SWIDTH 1000 0
DWIDTH 8 0
BBX 8 12 0 -3
BITMAP
00
00
3C
42
99
A1
A1
99
42
3C
00
00
ENDCHAR
STARTCHAR uni2018
ENCODING 8216
SWIDTH 1000 0
DWIDTH 8 0
BBX 8 12 0 -3
BITMAP
00
00
10
20
30
30
00
00
00
00
00
00
ENDCHAR
STARTCHAR uni2019
ENCODING 8217
SWIDTH 1000 0
DWIDTH 8 0
BBX 8 12 0 -3
BITMAP
00
00
30
30
10
20
00
00
00
00
00
00
ENDCHAR
STARTCHAR uni201C
ENCODING 8220
SWIDTH 1000 0
DWIDTH 8 0
BBX 8 12 0 -3
BITMAP
00
00
24
48
6C
6C
00
00
00
00
00
00
ENDCHAR
STARTCHAR uni201D
ENCODING 8221
SWIDTH 1000 0
DWIDTH 8 0
BBX 8 12 0 -3
BITMAP
00
00
6C
6C
24
48
00
00
00
00
00
00
ENDCHAR
STARTCHAR uni2605
ENCODING 9733
SWIDTH 1000 0
DWIDTH 8 0
BBX 8 12 0 -3
BITMAP
00
00
10
10
FE
7C
38
6C
44
00
00
00
ENDCHAR
STARTCHAR uni2660
ENCODING 9824
SWIDTH 1000 0
DWIDTH 8 0
BBX 8 12 0 -3
BITMAP
00
00
10
38
7C
FE
FE
54
38
00
00
00
ENDCHAR
STARTCHAR uni2663
ENCODING 9827
SWIDTH 1000 0
DWIDTH 8 0
BBX 8 12 0 -3
BITMAP
00
00
10
38
54
FE
54
10
38
00
00
00
ENDCHAR
STARTCHAR uni2665
ENCODING 9829
SWIDTH 1000 0
DWIDTH 8 0
BBX 8 12 0 -3
BITMAP
00
00
6C
FE
FE
FE
7C
38
10
00
00
00
ENDCHAR
STARTCHAR uni2666
ENCODING 9830
SWIDTH 1000 0
DWIDTH 8 0
BBX 8 12 0 -3
BITMAP
00
00
10
38
7C
FE
7C
38
10
00
00
00
ENDCHAR
STARTCHAR uniFF10
ENCODING 65296
SWIDTH 1000 0
DWIDTH 8 0
BBX 8 12 0 -3
BITMAP
00
00
7C
CE
CE
CE
CE
CE
7C
00
00
00
ENDCHAR
STARTCHAR uniFF11
ENCODING 65297
SWIDTH 1000 0
DWIDTH 8 0
BBX 8 12 0 -3
BITMAP
00
00
38
78
38
38
38
38
FE
00
00
00
ENDCHAR
STARTCHAR uniFF12
ENCODING 65298
SWIDTH 1000 0
DWIDTH 8 0
BBX 8 12 0 -3
BITMAP
00
00
FC
06
3E
70
E0
E0
FE
00
00
00
ENDCHAR
STARTCHAR uniFF13
ENCODING 65299
SWIDTH 1000 0
DWIDTH 8 0
BBX 8 12 0 -3
BITMAP
00
00
FC
0E
7C
0E
0E
0E
FC
00
00
00
ENDCHAR
STARTCHAR uniFF14
ENCODING 65300
SWIDTH 1000 0
DWIDTH 8 0
BBX 8 12 0 -3
BITMAP
00
00
1E
2E
4E
CE
CE
FE
0E
00
00
00
ENDCHAR
STARTCHAR uniFF15
ENCODING 65301
SWIDTH 1000 0
DWIDTH 8 0
BBX 8 12 0 -3
BITMAP
00
00
FC
C0
FC
0E
0E
CE
7C
00
00
00
ENDCHAR
STARTCHAR uniFF16
ENCODING 65302
SWIDTH 1000 0
DWIDTH 8 0
BBX 8 12 0 -3
BITMAP
00
00
7C
C0
FC
CE
CE
CE
7C
00
00
00
ENDCHAR
STARTCHAR uniFF17
ENCODING 65303
SWIDTH 1000 0
DWIDTH 8 0
BBX 8 12 0 -3
BITMAP
00
00
FE
0E
1C
38
38
38
38
00
00
00
ENDCHAR
STARTCHAR uniFF18
ENCODING 65304
SWIDTH 1000 0
DWIDTH 8 0
BBX 8 12 0 -3
BITMAP
00
00
7C
CE
7C
E6
E6
E6
7C
00
00
00
ENDCHAR
STARTCHAR uniFF19
ENCODING 65305
SWIDTH 1000 0
DWIDTH 8 0
BBX 8 12 0 -3
BITMAP
00
00
7C
E6
E6
E6
7E
0E
0E
00
00
00
ENDCHAR
STARTCHAR .notdef
ENCODING 65534
SWIDTH 1000 0
DWIDTH 8 0
BBX 8 12 0 -3
BITMAP
00
00
FE
FE
FE
FE
FE
FE
FE
00
00
00
ENDCHAR
ENDFONT
